<?xml version="1.0" encoding="UTF-8" standalone="no"?>
<!DOCTYPE svg PUBLIC "-//W3C//DTD SVG 1.1//EN"
 "http://www.w3.org/Graphics/SVG/1.1/DTD/svg11.dtd">
<!-- Generated by graphviz version 2.43.0 (0)
 -->
<!-- Title: G Pages: 1 -->
<svg width="2138pt" height="405pt"
 viewBox="0.00 0.00 2138.00 405.48" xmlns="http://www.w3.org/2000/svg" xmlns:xlink="http://www.w3.org/1999/xlink">
<g id="graph0" class="graph" transform="scale(1 1) rotate(0) translate(4 401.48)">
<title>G</title>
<polygon fill="white" stroke="transparent" points="-4,4 -4,-401.48 2134,-401.48 2134,4 -4,4"/>
<g id="clust1" class="cluster">
<title>cluster_G</title>
<path fill="#808080" fill-opacity="0.094118" stroke="black" d="M20,-8C20,-8 2110,-8 2110,-8 2116,-8 2122,-14 2122,-20 2122,-20 2122,-377.48 2122,-377.48 2122,-383.48 2116,-389.48 2110,-389.48 2110,-389.48 20,-389.48 20,-389.48 14,-389.48 8,-383.48 8,-377.48 8,-377.48 8,-20 8,-20 8,-14 14,-8 20,-8"/>
</g>
<g id="clust2" class="cluster">
<title>cluster_display</title>
<path fill="#808080" fill-opacity="0.094118" stroke="black" d="M590,-152C590,-152 752,-152 752,-152 758,-152 764,-158 764,-164 764,-164 764,-232.74 764,-232.74 764,-238.74 758,-244.74 752,-244.74 752,-244.74 590,-244.74 590,-244.74 584,-244.74 578,-238.74 578,-232.74 578,-232.74 578,-164 578,-164 578,-158 584,-152 590,-152"/>
<text text-anchor="middle" x="671" y="-229.54" font-family="Times,serif" font-size="14.00">display</text>
</g>
<g id="clust3" class="cluster">
<title>cluster_httpserver</title>
<path fill="#808080" fill-opacity="0.094118" stroke="black" d="M784,-152C784,-152 2102,-152 2102,-152 2108,-152 2114,-158 2114,-164 2114,-164 2114,-325.48 2114,-325.48 2114,-331.48 2108,-337.48 2102,-337.48 2102,-337.48 784,-337.48 784,-337.48 778,-337.48 772,-331.48 772,-325.48 772,-325.48 772,-164 772,-164 772,-158 778,-152 784,-152"/>
<text text-anchor="middle" x="1443" y="-322.28" font-family="Times,serif" font-size="14.00">httpserver</text>
</g>
<g id="clust4" class="cluster">
<title>cluster_startsystem</title>
<path fill="#808080" fill-opacity="0.094118" stroke="black" d="M330,-152C330,-152 544,-152 544,-152 550,-152 556,-158 556,-164 556,-164 556,-232.74 556,-232.74 556,-238.74 550,-244.74 544,-244.74 544,-244.74 330,-244.74 330,-244.74 324,-244.74 318,-238.74 318,-232.74 318,-232.74 318,-164 318,-164 318,-158 324,-152 330,-152"/>
<text text-anchor="middle" x="437" y="-229.54" font-family="Times,serif" font-size="14.00">startsystem</text>
</g>
<!-- boot -->
<g id="node1" class="node">
<title>boot</title>
<ellipse fill="#ffffff" fill-opacity="0.698039" stroke="black" cx="1301" cy="-363.48" rx="31.4" ry="18"/>
<text text-anchor="middle" x="1301" y="-359.78" font-family="Times,serif" font-size="14.00" fill="#000000">boot</text>
</g>
<!-- config -->
<g id="node2" class="node">
<title>config</title>
<ellipse fill="#ffffff" fill-opacity="0.698039" stroke="black" cx="196" cy="-34" rx="38.19" ry="18"/>
<text text-anchor="middle" x="196" y="-30.3" font-family="Times,serif" font-size="14.00" fill="#000000">config</text>
</g>
<!-- display -->
<g id="node3" class="node">
<title>display</title>
<ellipse fill="#ffffff" fill-opacity="0.698039" stroke="black" cx="259" cy="-106" rx="44.39" ry="18"/>
<text text-anchor="middle" x="259" y="-102.3" font-family="Times,serif" font-size="14.00" fill="#000000">display</text>
</g>
<!-- display&#45;&gt;config -->
<g id="edge1" class="edge">
<title>display&#45;&gt;config</title>
<path fill="none" stroke="#000000" d="M244.39,-88.76C236.36,-79.84 226.25,-68.61 217.35,-58.72"/>
<polygon fill="#000000" stroke="#000000" points="219.82,-56.24 210.53,-51.15 214.62,-60.92 219.82,-56.24"/>
</g>
<!-- httpserver -->
<g id="node4" class="node">
<title>httpserver</title>
<ellipse fill="#ffffff" fill-opacity="0.698039" stroke="black" cx="228" cy="-186.87" rx="59.59" ry="18"/>
<text text-anchor="middle" x="228" y="-183.17" font-family="Times,serif" font-size="14.00" fill="#000000">httpserver</text>
</g>
<!-- httpserver&#45;&gt;config -->
<g id="edge3" class="edge">
<title>httpserver&#45;&gt;config</title>
<path fill="none" stroke="#000000" d="M220.75,-168.85C215.83,-156.6 209.59,-139.55 206,-124 201.31,-103.67 198.79,-80.21 197.45,-62.48"/>
<polygon fill="#000000" stroke="#000000" points="200.93,-62 196.76,-52.26 193.94,-62.47 200.93,-62"/>
</g>
<!-- httpserver&#45;&gt;display -->
<g id="edge2" class="edge">
<title>httpserver&#45;&gt;display</title>
<path fill="none" stroke="#000000" d="M234.73,-168.76C238.82,-158.35 244.12,-144.85 248.73,-133.13"/>
<polygon fill="#000000" stroke="#000000" points="251.99,-134.4 252.39,-123.81 245.48,-131.84 251.99,-134.4"/>
</g>
<!-- lab8 -->
<g id="node5" class="node">
<title>lab8</title>
<ellipse fill="#ffffff" fill-opacity="0.698039" stroke="black" cx="47" cy="-186.87" rx="30.59" ry="18"/>
<text text-anchor="middle" x="47" y="-183.17" font-family="Times,serif" font-size="14.00" fill="#000000">lab8</text>
</g>
<!-- lab8&#45;&gt;config -->
<g id="edge8" class="edge">
<title>lab8&#45;&gt;config</title>
<path fill="none" stroke="#000000" d="M61.83,-170.85C87.89,-144.47 142.05,-89.62 173,-58.29"/>
<polygon fill="#000000" stroke="#000000" points="175.8,-60.44 180.34,-50.86 170.82,-55.52 175.8,-60.44"/>
</g>
<!-- led -->
<g id="node6" class="node">
<title>led</title>
<ellipse fill="#ffffff" fill-opacity="0.698039" stroke="black" cx="123" cy="-186.87" rx="27" ry="18"/>
<text text-anchor="middle" x="123" y="-183.17" font-family="Times,serif" font-size="14.00" fill="#000000">led</text>
</g>
<!-- led&#45;&gt;config -->
<g id="edge9" class="edge">
<title>led&#45;&gt;config</title>
<path fill="none" stroke="#000000" d="M130.95,-169.44C143.56,-143.39 168.23,-92.38 183.31,-61.23"/>
<polygon fill="#000000" stroke="#000000" points="186.63,-62.4 187.84,-51.87 180.33,-59.35 186.63,-62.4"/>
</g>
<!-- main -->
<g id="node7" class="node">
<title>main</title>
<ellipse fill="#ffffff" fill-opacity="0.698039" stroke="black" cx="437" cy="-363.48" rx="33.6" ry="18"/>
<text text-anchor="middle" x="437" y="-359.78" font-family="Times,serif" font-size="14.00" fill="#000000">main</text>
</g>
<!-- startsystem -->
<g id="node8" class="node">
<title>startsystem</title>
<ellipse fill="#ffffff" fill-opacity="0.698039" stroke="black" cx="437" cy="-279.61" rx="66.09" ry="18"/>
<text text-anchor="middle" x="437" y="-275.91" font-family="Times,serif" font-size="14.00" fill="#000000">startsystem</text>
</g>
<!-- main&#45;&gt;startsystem -->
<g id="edge10" class="edge">
<title>main&#45;&gt;startsystem</title>
<path fill="none" stroke="#000000" d="M437,-345.12C437,-334.3 437,-320.15 437,-307.86"/>
<polygon fill="#000000" stroke="#000000" points="440.5,-307.67 437,-297.67 433.5,-307.67 440.5,-307.67"/>
</g>
<!-- startsystem&#45;&gt;config -->
<g id="edge15" class="edge">
<title>startsystem&#45;&gt;config</title>
<path fill="none" stroke="#000000" d="M493.06,-269.93C521.38,-264.28 551.51,-255.88 560,-244.74 572.49,-228.35 572.14,-168.65 560,-152 521.87,-99.69 330.58,-59.18 241.62,-42.85"/>
<polygon fill="#000000" stroke="#000000" points="242.01,-39.36 231.55,-41.02 240.77,-46.25 242.01,-39.36"/>
</g>
<!-- startsystem&#45;&gt;display -->
<g id="edge16" class="edge">
<title>startsystem&#45;&gt;display</title>
<path fill="none" stroke="#000000" d="M373.27,-274.6C351.67,-270.07 329.19,-261.32 314,-244.74 285.69,-213.84 314.9,-189.89 297,-152 293.44,-144.46 288.29,-137.16 282.92,-130.7"/>
<polygon fill="#000000" stroke="#000000" points="285.37,-128.19 276.12,-123.03 280.14,-132.84 285.37,-128.19"/>
</g>
<!-- startsystem&#45;&gt;httpserver -->
<g id="edge13" class="edge">
<title>startsystem&#45;&gt;httpserver</title>
<path fill="none" stroke="#000000" d="M381.03,-269.91C356.02,-264.69 326.69,-256.68 302,-244.74 284.08,-236.07 266.31,-222.62 252.68,-210.98"/>
<polygon fill="#000000" stroke="#000000" points="254.99,-208.34 245.16,-204.38 250.37,-213.61 254.99,-208.34"/>
</g>
<!-- startsystem&#45;&gt;lab8 -->
<g id="edge12" class="edge">
<title>startsystem&#45;&gt;lab8</title>
<path fill="none" stroke="#000000" d="M370.55,-278.69C282.71,-277.69 133.63,-271.88 87,-244.74 74.73,-237.6 65.3,-225.02 58.68,-213.51"/>
<polygon fill="#000000" stroke="#000000" points="61.75,-211.83 53.98,-204.63 55.56,-215.1 61.75,-211.83"/>
</g>
<!-- startsystem&#45;&gt;led -->
<g id="edge17" class="edge">
<title>startsystem&#45;&gt;led</title>
<path fill="none" stroke="#000000" d="M371.37,-277.02C300.52,-274.19 193.21,-266.37 159,-244.74 147.5,-237.47 139.02,-225.05 133.18,-213.67"/>
<polygon fill="#000000" stroke="#000000" points="136.3,-212.07 128.9,-204.49 129.96,-215.04 136.3,-212.07"/>
</g>
<!-- display__message -->
<g id="node10" class="node">
<title>display__message</title>
<ellipse fill="#f4fecc" fill-opacity="0.698039" stroke="black" cx="671" cy="-186.87" rx="84.71" ry="26.74"/>
<text text-anchor="middle" x="671" y="-190.67" font-family="Times,serif" font-size="14.00" fill="#000000">message</text>
<text text-anchor="middle" x="671" y="-175.67" font-family="Times,serif" font-size="14.00" fill="#000000">(display.py:21)</text>
</g>
<!-- startsystem&#45;&gt;display__message -->
<g id="edge11" class="edge">
<title>startsystem&#45;&gt;display__message</title>
<path fill="none" stroke="#000000" d="M493.48,-270.03C520.89,-264.71 553.89,-256.59 582,-244.74 598.81,-237.65 615.99,-227.49 630.72,-217.7"/>
<polygon fill="#000000" stroke="#000000" points="632.79,-220.53 639.09,-212.02 628.85,-214.74 632.79,-220.53"/>
</g>
<!-- startsystem__main -->
<g id="node18" class="node">
<title>startsystem__main</title>
<ellipse fill="#d6ccfe" fill-opacity="0.698039" stroke="black" cx="437" cy="-186.87" rx="111.03" ry="26.74"/>
<text text-anchor="middle" x="437" y="-190.67" font-family="Times,serif" font-size="14.00" fill="#000000">main</text>
<text text-anchor="middle" x="437" y="-175.67" font-family="Times,serif" font-size="14.00" fill="#000000">(startsystem.py:40)</text>
</g>
<!-- startsystem&#45;&gt;startsystem__main -->
<g id="edge14" class="edge">
<title>startsystem&#45;&gt;startsystem__main</title>
<path fill="none" stroke="#000000" d="M437,-261.54C437,-250.93 437,-236.88 437,-223.89"/>
<polygon fill="#000000" stroke="#000000" points="440.5,-223.79 437,-213.79 433.5,-223.79 440.5,-223.79"/>
</g>
<!-- webrepl_cfg -->
<g id="node9" class="node">
<title>webrepl_cfg</title>
<ellipse fill="#ffffff" fill-opacity="0.698039" stroke="black" cx="201" cy="-363.48" rx="66.89" ry="18"/>
<text text-anchor="middle" x="201" y="-359.78" font-family="Times,serif" font-size="14.00" fill="#000000">webrepl_cfg</text>
</g>
<!-- httpserver__index -->
<g id="node11" class="node">
<title>httpserver__index</title>
<ellipse fill="#d6fecc" fill-opacity="0.698039" stroke="black" cx="2003" cy="-279.61" rx="103.48" ry="26.74"/>
<text text-anchor="middle" x="2003" y="-283.41" font-family="Times,serif" font-size="14.00" fill="#000000">index</text>
<text text-anchor="middle" x="2003" y="-268.41" font-family="Times,serif" font-size="14.00" fill="#000000">(httpserver.py:24)</text>
</g>
<!-- httpserver__led -->
<g id="node12" class="node">
<title>httpserver__led</title>
<ellipse fill="#d6fecc" fill-opacity="0.698039" stroke="black" cx="1779" cy="-279.61" rx="103.48" ry="26.74"/>
<text text-anchor="middle" x="1779" y="-283.41" font-family="Times,serif" font-size="14.00" fill="#000000">led</text>
<text text-anchor="middle" x="1779" y="-268.41" font-family="Times,serif" font-size="14.00" fill="#000000">(httpserver.py:34)</text>
</g>
<!-- httpserver__ledtowebresponse -->
<g id="node15" class="node">
<title>httpserver__ledtowebresponse</title>
<ellipse fill="#d6fecc" fill-opacity="0.698039" stroke="black" cx="1555" cy="-186.87" rx="103.48" ry="26.74"/>
<text text-anchor="middle" x="1555" y="-190.67" font-family="Times,serif" font-size="14.00" fill="#000000">ledtowebresponse</text>
<text text-anchor="middle" x="1555" y="-175.67" font-family="Times,serif" font-size="14.00" fill="#000000">(httpserver.py:29)</text>
</g>
<!-- httpserver__led&#45;&gt;httpserver__ledtowebresponse -->
<g id="edge4" class="edge">
<title>httpserver__led&#45;&gt;httpserver__ledtowebresponse</title>
<path fill="none" stroke="#000000" d="M1724.78,-256.64C1692.84,-243.71 1652.27,-227.27 1618.8,-213.72"/>
<polygon fill="#000000" stroke="#000000" points="1619.7,-210.3 1609.11,-209.79 1617.07,-216.79 1619.7,-210.3"/>
</g>
<!-- httpserver__ledoff -->
<g id="node13" class="node">
<title>httpserver__ledoff</title>
<ellipse fill="#d6fecc" fill-opacity="0.698039" stroke="black" cx="1555" cy="-279.61" rx="103.48" ry="26.74"/>
<text text-anchor="middle" x="1555" y="-283.41" font-family="Times,serif" font-size="14.00" fill="#000000">ledoff</text>
<text text-anchor="middle" x="1555" y="-268.41" font-family="Times,serif" font-size="14.00" fill="#000000">(httpserver.py:43)</text>
</g>
<!-- httpserver__ledoff&#45;&gt;httpserver__ledtowebresponse -->
<g id="edge6" class="edge">
<title>httpserver__ledoff&#45;&gt;httpserver__ledtowebresponse</title>
<path fill="none" stroke="#000000" d="M1555,-252.36C1555,-243.45 1555,-233.32 1555,-223.78"/>
<polygon fill="#000000" stroke="#000000" points="1558.5,-223.74 1555,-213.74 1551.5,-223.74 1558.5,-223.74"/>
</g>
<!-- httpserver__ledon -->
<g id="node14" class="node">
<title>httpserver__ledon</title>
<ellipse fill="#d6fecc" fill-opacity="0.698039" stroke="black" cx="1331" cy="-279.61" rx="103.48" ry="26.74"/>
<text text-anchor="middle" x="1331" y="-283.41" font-family="Times,serif" font-size="14.00" fill="#000000">ledon</text>
<text text-anchor="middle" x="1331" y="-268.41" font-family="Times,serif" font-size="14.00" fill="#000000">(httpserver.py:38)</text>
</g>
<!-- httpserver__ledon&#45;&gt;httpserver__ledtowebresponse -->
<g id="edge5" class="edge">
<title>httpserver__ledon&#45;&gt;httpserver__ledtowebresponse</title>
<path fill="none" stroke="#000000" d="M1385.22,-256.64C1417.16,-243.71 1457.73,-227.27 1491.2,-213.72"/>
<polygon fill="#000000" stroke="#000000" points="1492.93,-216.79 1500.89,-209.79 1490.3,-210.3 1492.93,-216.79"/>
</g>
<!-- httpserver__message -->
<g id="node16" class="node">
<title>httpserver__message</title>
<ellipse fill="#d6fecc" fill-opacity="0.698039" stroke="black" cx="1107" cy="-279.61" rx="103.48" ry="26.74"/>
<text text-anchor="middle" x="1107" y="-283.41" font-family="Times,serif" font-size="14.00" fill="#000000">message</text>
<text text-anchor="middle" x="1107" y="-268.41" font-family="Times,serif" font-size="14.00" fill="#000000">(httpserver.py:54)</text>
</g>
<!-- httpserver__message&#45;&gt;display__message -->
<g id="edge7" class="edge">
<title>httpserver__message&#45;&gt;display__message</title>
<path fill="none" stroke="#000000" d="M1035.98,-260.05C1022.45,-257.13 1008.35,-254.5 995,-252.74 944.96,-246.14 816.47,-258.82 768,-244.74 748.05,-238.94 727.92,-228.13 711.2,-217.48"/>
<polygon fill="#000000" stroke="#000000" points="713.08,-214.53 702.8,-211.96 709.23,-220.37 713.08,-214.53"/>
</g>
<!-- httpserver__static -->
<g id="node17" class="node">
<title>httpserver__static</title>
<ellipse fill="#d6fecc" fill-opacity="0.698039" stroke="black" cx="883" cy="-279.61" rx="103.48" ry="26.74"/>
<text text-anchor="middle" x="883" y="-283.41" font-family="Times,serif" font-size="14.00" fill="#000000">static</text>
<text text-anchor="middle" x="883" y="-268.41" font-family="Times,serif" font-size="14.00" fill="#000000">(httpserver.py:63)</text>
</g>
</g>
</svg>
